<svg width="400" height="300" viewBox="0 0 400 300" fill="none" xmlns="http://www.w3.org/2000/svg">
  <!-- Achtergrond -->
  <rect width="400" height="300" fill="#0d1a26"/>
  
  <!-- Main panel -->
  <rect x="10" y="10" width="380" height="280" rx="8" fill="rgba(255,255,255,0.03)"/>

  <!-- Navigatie -->
  <rect x="25" y="25" width="40" height="8" rx="4" fill="rgba(0, 242, 161, 0.5)"/>
  <rect x="335" y="29" width="40" height="4" rx="2" fill="rgba(255,255,255,0.2)"/>
  <rect x="285" y="29" width="40" height="4" rx="2" fill="rgba(255,255,255,0.2)"/>
  <rect x="235" y="29" width="40" height="4" rx="2" fill="rgba(255,255,255,0.2)"/>

  <!-- Hero Sectie -->
  <rect x="25" y="60" width="350" height="100" rx="4" fill="rgba(0, 201, 255, 0.1)"/>
  <rect x="100" y="90" width="200" height="12" rx="6" fill="rgba(255,255,255,0.5)"/>
  <rect x="125" y="115" width="150" height="6" rx="3" fill="rgba(255,255,255,0.3)"/>

  <!-- Drie Feature Kaarten -->
  <rect x="30" y="180" width="105" height="90" rx="4" fill="rgba(0, 242, 161, 0.08)"/>
  <circle cx="82.5" cy="205" r="12" fill="rgba(0, 242, 161, 0.2)"/>
  <rect x="50" y="230" width="65" height="4" rx="2" fill="rgba(255,255,255,0.2)"/>
  <rect x="60" y="240" width="45" height="4" rx="2" fill="rgba(255,255,255,0.2)"/>

  <rect x="147.5" y="180" width="105" height="90" rx="4" fill="rgba(0, 242, 161, 0.08)"/>
  <circle cx="200" cy="205" r="12" fill="rgba(0, 242, 161, 0.2)"/>
  <rect x="167.5" y="230" width="65" height="4" rx="2" fill="rgba(255,255,255,0.2)"/>
  <rect x="177.5" y="240" width="45" height="4" rx="2" fill="rgba(255,255,255,0.2)"/>

  <rect x="265" y="180" width="105" height="90" rx="4" fill="rgba(0, 242, 161, 0.08)"/>
  <circle cx="317.5" cy="205" r="12" fill="rgba(0, 242, 161, 0.2)"/>
  <rect x="285" y="230" width="65" height="4" rx="2" fill="rgba(255,255,255,0.2)"/>
  <rect x="295" y="240" width="45" height="4" rx="2" fill="rgba(255,255,255,0.2)"/>
</svg>