<svg width="400" height="300" viewBox="0 0 400 300" fill="none" xmlns="http://www.w3.org/2000/svg">
  <!-- Achtergrond -->
  <rect width="400" height="300" fill="#0d1a26"/>
  
  <!-- Main panel -->
  <rect x="10" y="10" width="380" height="280" rx="8" fill="rgba(255,255,255,0.03)"/>

  <!-- Header -->
  <rect x="25" y="25" width="40" height="8" rx="4" fill="rgba(0, 242, 161, 0.5)"/>
  <rect x="335" y="29" width="40" height="4" rx="2" fill="rgba(255,255,255,0.2)"/>
  <rect x="285" y="29" width="40" height="4" rx="2" fill="rgba(255,255,255,0.2)"/>

  <!-- Product Afbeelding Placeholder -->
  <rect x="30" y="60" width="180" height="210" rx="4">
    <linearGradient id="imgGrad" x1="0" y1="0" x2="1" y2="1">
      <stop offset="0%" stop-color="#00f2a1" stop-opacity="0.2"/>
      <stop offset="100%" stop-color="#00c9ff" stop-opacity="0.2"/>
    </linearGradient>
    <fill url(#imgGrad)/>
  </rect>

  <!-- Product Info -->
  <rect x="230" y="70" width="140" height="12" rx="6" fill="rgba(255,255,255,0.6)"/>
  <rect x="230" y="95" width="100" height="6" rx="3" fill="rgba(255,255,255,0.3)"/>
  <rect x="230" y="107" width="120" height="6" rx="3" fill="rgba(255,255,255,0.3)"/>
  <rect x="230" y="119" width="90" height="6" rx="3" fill="rgba(255,255,255,0.3)"/>

  <!-- Prijs -->
  <rect x="230" y="150" width="80" height="10" rx="5" fill="rgba(0, 242, 161, 0.4)"/>

  <!-- CTA Knop -->
  <rect x="230" y="230" width="140" height="40" rx="4">
     <linearGradient id="btnGrad" x1="0" y1="0" x2="1" y2="0">
      <stop offset="0%" stop-color="#00f2a1"/>
      <stop offset="100%" stop-color="#00c9ff"/>
    </linearGradient>
    <fill url(#btnGrad)/>
  </rect>
  <rect x="270" y="246" width="60" height="8" rx="4" fill="#0d1a26"/>
</svg>